<?xml version="1.0" encoding="UTF-8"?>
<svg id="Ebene_1" data-name="Ebene 1" xmlns="http://www.w3.org/2000/svg" viewBox="0 0 639 926">
  <defs>
    <style>
      .cls-1 {
        stroke-width: 0px;
      }

      .cls-1, .cls-2 {
        fill: #fff;
      }

      .cls-2 {
        font-family: ColonnaMT, 'Colonna MT';
        font-size: 755.59px;
      }
    </style>
  </defs>
  <g>
    <path class="cls-1" d="m150.11,196.59c-7.89,6.23-17.62,11.56-27.87,11.47-10.31-.09-19.89-6.41-26.99-13.09-6.59-6.2-12.42-18.44-10.85-27.89,1.97-11.86,9.97-22.19,19.37-29.41,5.74-4.41,11.37-7.58,16.71-9.37,5.33-1.79,9.87-2.08,13.54-1-1.87,4.85-2.75,7.28-4.42,12.14-3.08-.7-6.32-.61-9.72.3-3.4.91-6.63,2.53-9.64,4.87-7.61,5.9-11.86,12.67-12.69,19.76-.83,7.09,1.87,13.82,7.77,20.25,6.46,7.04,13.09,10.63,19.75,11.13,6.66.5,13.31-2.06,20.41-7.51,3.03-2.33,5.55-4.58,7.55-6.79,2-2.21,3.65-4.01,4.93-5.43,3.57,1.89,5.33,2.86,8.82,4.84-1.12,1.27-3.17,3.38-6.07,6.4-2.9,3.02-6.49,6.09-10.6,9.33Zm-21.6-18.26c-2.44-3.04-3.67-4.56-6.11-7.61,8.01-6.51,16.48-12.72,25.12-18.38,2.15,3.26,3.23,4.88,5.38,8.14-8.38,5.49-16.61,11.52-24.39,17.84Zm28.7,9.12c-6.68-9.32-13.35-18.65-20.03-27.97,4.22-3.03,6.35-4.5,10.66-7.34,6.31,9.58,12.62,19.15,18.94,28.73-3.87,2.55-5.78,3.87-9.57,6.59Z"/>
    <path class="cls-1" d="m203.89,163.38c-7.53,3.6-14.37,4.51-20.95,2.56-6.58-1.96-12.27-6.63-16.85-14.34-4.59-7.74-5.91-15.09-3.58-22.04,2.33-6.95,8.05-12.85,17.01-17.14,9-4.3,17.12-5.02,23.91-2.44,6.78,2.58,11.62,8.24,14.77,16.67,3.14,8.4,3.27,15.75.74,22.07-2.53,6.32-7.48,11.05-15.04,14.67Zm-4.21-8.8c4.14-1.98,6.68-4.87,7.7-8.83,1.02-3.96.45-8.65-1.84-14.07-2.3-5.46-5.31-9.15-9.1-10.99-3.79-1.84-8.08-1.68-12.71.53-4.63,2.22-7.46,5.47-8.43,9.58-.97,4.12.01,8.78,2.82,14,2.79,5.19,6.09,8.57,9.83,10.25,3.74,1.68,7.6,1.51,11.74-.47Z"/>
    <path class="cls-1" d="m262.05,142.7c-6.07,1.47-11.15,1.14-15.46-1.14-4.31-2.28-7.47-6.31-9.32-12.22-3.59-11.43-7.18-22.86-10.78-34.29,5.4-1.69,8.11-2.48,13.56-3.95,3.13,11.57,6.26,23.13,9.4,34.7.81,3.01,2.44,5.06,4.82,6.19,2.39,1.13,5.32,1.26,8.85.45,4.36-1,7.39-2.9,9.17-5.81,1.77-2.91,2.16-7.27,1.08-13.09,2.36,5.54,3.52,8.31,5.76,13.89-1.6.28-2.4.42-4,.72-.27,3.81-1.56,6.95-3.86,9.45-2.29,2.5-5.35,4.18-9.23,5.12Zm13.1-19.59c-2.37-12.79-4.74-25.58-7.11-38.37,5.53-1.02,8.31-1.47,13.87-2.27,1.71,11.86,3.43,23.71,5.14,35.57-4.82,1.94-7.2,2.95-11.9,5.07Zm3.89,15.47c-1.33-5.06-2-7.59-3.37-12.64-.7-3.76-1.04-5.63-1.74-9.39,5.03-.93,7.55-1.34,12.6-2.07.7,4.84,1.05,7.26,1.75,12.09,3.41-.03,5.11-.03,8.51.03.4,3.47.61,5.2,1.01,8.67-7.54,1.08-11.3,1.74-18.76,3.3Z"/>
    <path class="cls-1" d="m305.16,134.52c-.35-3.8-.52-5.71-.87-9.51,13.57-1.24,27.22-1.58,40.84-1.02-.16,3.82-.24,5.72-.39,9.54-13.19-.54-26.42-.21-39.57.99Zm-1.53-44.91c-.32-3.81-.48-5.71-.8-9.52,9.34-.78,14.02-1.02,23.38-1.18.6,3.81.89,5.72,1.45,9.53-9.62.13-14.44.37-24.03,1.17Zm14.7,44c-.86-18.12-1.71-36.24-2.57-54.36,4.55-.21,6.82-.28,11.37-.35,1.15,6.23,1.7,9.34,2.76,15.58.1,12.94.19,25.88.29,38.81-4.74.04-7.12.1-11.86.32Zm11.68-23.73c-1.55-6.81-2.36-10.21-4.07-16.99,2.08-.04,3.12-.05,5.21-.06.72-10,7.2-15.15,19.3-14.54,7.24.37,12.38,2.44,15.29,5.95,2.91,3.51,3.9,8.86,3.12,16.01-5.22-.57-7.84-.8-13.08-1.17.28-3.96-.25-6.86-1.61-8.7-1.36-1.84-3.71-2.85-7.03-2.99-5.81-.25-10.21,1.68-13.04,5.62-2.83,3.94-4.15,9.58-4.09,16.87Z"/>
    <path class="cls-1" d="m373.93,136.16c2.52-17.97,5.04-35.93,7.56-53.9,4.93.69,7.4,1.08,12.31,1.94-.17,4.64-.27,6.96-.48,11.6-2.55,14.08-5.1,28.16-7.65,42.24-4.68-.84-7.03-1.22-11.74-1.88Zm21.98,3.91c3.02-13.88,6.03-27.76,9.05-41.65.65-3.01-.8-4.92-4.37-5.63-4.34-.87-6.95,1.19-7.83,6.04-1-3.35-1.51-5.03-2.58-8.37,1.74.29,2.62.45,4.36.76,1.45-5.03,5.9-6.91,13.28-5.31,3.6.78,6.21,2.4,7.78,4.79,1.57,2.39,1.84,5.52.87,9.37-3.57,14.1-7.14,28.21-10.71,42.31-3.93-.99-5.9-1.45-9.85-2.31Zm19.96,5.05c3.87-13.31,7.74-26.63,11.61-39.94,1.05-3.62-.13-5.93-3.57-6.87-4.36-1.19-7.16.67-8.37,5.45-1.02-3.48-1.54-5.21-2.65-8.68,2.08.49,3.12.75,5.19,1.28.74-2,2.24-3.51,4.54-4.5,2.3-.99,5.27-.99,8.86.06,4.71,1.37,7.81,3.42,9.3,6.02,1.48,2.6,1.48,6.05.04,10.34-4.51,13.47-9.02,26.95-13.53,40.42-4.55-1.52-6.83-2.23-11.42-3.56Z"/>
    <path class="cls-1" d="m468.92,167.34c-9.17-4.73-15.36-10.1-18.74-16.8-3.38-6.7-3.66-14.28-.37-22.8,3.2-8.31,8.15-13.85,15.11-16.31,6.96-2.46,15.31-1.56,24.55,3,8.71,4.31,14.29,9.98,16.61,16.46,2.32,6.48,1.12,13.36-3.29,20.61-1.3,2.14-2.61,4.06-3.94,5.78-13.3-7.72-26.7-14.59-40.74-20.87,1.3-3.06,1.95-4.59,3.25-7.66,10.79,4.58,21.34,9.75,31.58,15.46,2.38-4.28,2.95-8.28,1.58-11.99-1.37-3.72-4.44-6.83-9.17-9.17-5.32-2.63-10.18-3.12-14.41-1.55-4.22,1.57-7.42,5.05-9.68,10.34-2.48,5.79-2.44,11-.09,15.67,2.35,4.67,6.79,8.55,13.37,11.99,2.3,1.2,4.61,2.3,6.95,3.3,2.33,1,4.74,1.97,7.23,2.91-1.4,3.61-2.11,5.41-3.54,9-3.43-1.32-6.48-2.6-9.18-3.89-2.69-1.29-5.06-2.44-7.09-3.49Z"/>
    <path class="cls-1" d="m522.98,145.99c2.12-3.18,3.18-4.77,5.29-7.95,18.54,12.85,35.58,26.75,51.94,42.29-2.68,2.72-4.02,4.08-6.7,6.81-15.91-15.13-32.5-28.65-50.53-41.15Zm3.13,25.71c8.99-12.09,17.98-24.17,26.96-36.26,4.93,3.68,7.37,5.57,12.17,9.48-9.48,11.7-18.97,23.4-28.45,35.1-4.22-3.43-6.36-5.09-10.69-8.32Zm4.85,38.43c-7.11-6.37-11.36-11.91-12.63-17.24-1.27-5.33.22-11.02,4.72-17.06,2.21-2.97,3.31-4.45,5.52-7.42,4.38,3.27,6.55,4.95,10.82,8.43-2.2,2.71-3.3,4.07-5.5,6.78-2.72,3.35-3.69,6.59-3,9.7.69,3.11,3.2,6.5,7.49,10.37,1.52,1.37,3.18,2.77,4.99,4.22,1.81,1.44,3.89,3.09,6.23,4.98-2.26,3.13-3.4,4.7-5.69,7.81-2.28-1.7-4.46-3.39-6.53-5.06s-4.2-3.51-6.41-5.49Z"/>
  </g>
  <g>
    <path class="cls-1" d="m88.36,722.57c15.92-15.92,31.83-31.83,47.75-47.75,3.34,3.34,5.03,4.96,8.47,8.13-15.23,16.57-30.46,33.15-45.69,49.72-4.27-3.93-6.38-5.95-10.53-10.1Zm9.81,9.44c2.45-2.65,3.68-3.98,6.13-6.64,3,2.77,4.51,4.13,7.57,6.8,7.44,6.49,14.51,9.48,20.75,9.26,6.24-.23,11.63-3.69,16.28-10.11,5.05-6.95,7.01-13.45,6.18-19.44-.83-6-4.42-11.49-10.76-17.03-2.54-2.21-3.8-3.34-6.29-5.64,2.04-3.03,3.07-4.55,5.14-7.56,2.8,2.61,4.21,3.89,7.08,6.38,16.23,13.65,21.3,32.44,9.27,50.69-13.71,20.8-37.33,14.85-53.59.26-3.14-2.74-4.7-4.13-7.77-6.98Z"/>
    <path class="cls-1" d="m185.28,791.93c-7.78-3.41-17.71-10.72-21.53-18.86-3.36-7.15-2.65-14.38,1.77-21.6,4.3-7.03,9.82-11.13,16.34-12.63,6.51-1.5,13.44-.24,21.19,3.57,7.31,3.59,12.2,7.93,14.8,13.47,2.6,5.54,2.63,11.95-.22,19.28-.84,2.16-1.73,4.12-2.69,5.9-14.48-5.95-28.32-12.52-42.1-19.97,1.52-2.68,2.28-4.02,3.79-6.71,10.12,5.48,20.14,10.46,30.62,15.21,1.79-4.16,1.91-7.89.46-11.2-1.45-3.31-4.26-5.92-8.47-7.98-4.73-2.32-9.01-2.94-13.01-1.79-4,1.15-7.34,3.99-9.94,8.64-2.85,5.09-3.16,10.04-.7,14.8,2.46,4.77,7.43,9.07,14.87,12.53,2.6,1.21,5.22,2.25,7.85,3.14,2.63.88,5.35,1.67,8.13,2.35-.71,3.53-1.05,5.3-1.73,8.84-4.07-1.01-7.72-2.15-10.96-3.4-3.24-1.24-6.1-2.54-8.48-3.59Z"/>
    <path class="cls-1" d="m242.82,746.75c1.12-3.36,1.69-5.03,2.81-8.39,6.56,2.19,9.87,3.18,16.52,4.95-.91,3.42-1.37,5.13-2.28,8.55-6.87-1.83-10.29-2.85-17.06-5.11Zm21.86,71.33c-7.91-1.58-13.24-4.53-15.9-8.47-2.66-3.94-3.01-9.3-1.19-16.04,4.55-16.83,9.1-33.67,13.65-50.5,4.27,1.15,6.42,1.68,10.73,2.66-3.83,16.85-7.67,33.7-11.5,50.55-.59,2.6-.75,4.79-.46,6.57.29,1.79,1.32,3.28,3.09,4.47,1.77,1.18,4.57,2.17,8.39,2.87,3.48.64,8.05.82,13.64.4.1,3.59.16,5.38.29,8.97-3.59.21-7.02.19-10.28-.04-3.26-.23-6.75-.7-10.45-1.44Z"/>
    <path class="cls-1" d="m303.86,822.65c.3-3.53.45-5.29.74-8.81,10.76.9,16.17,1.14,26.96,1.18-.01,3.54-.02,5.31-.04,8.84-11.08-.04-16.62-.29-27.67-1.21Zm6.93-41.15c.26-3.53.39-5.29.64-8.82,10.24.8,20.74,1.01,31.01.62.11,3.54.17,5.3.29,8.84-10.57.4-21.39.18-31.94-.64Zm25.26-16.05c-2.21.02-4.1-.67-5.65-2.06s-2.29-3.06-2.26-5c.03-1.96.83-3.61,2.35-4.96s3.31-2.03,5.41-2.05c2.13-.02,3.95.61,5.48,1.93s2.35,2.95,2.43,4.91c.08,1.93-.62,3.62-2.12,5.05-1.5,1.43-3.39,2.16-5.64,2.19Zm-5.83,58.4c.12-15.85.25-31.7.37-47.55,4.78.04,7.17,0,11.94-.15.51,15.84,1.02,31.68,1.54,47.53-5.54.18-8.31.21-13.85.17Zm12.54-.13c-.1-3.54-.15-5.3-.25-8.84,8.81-.25,13.21-.52,21.99-1.34.33,3.52.5,5.28.83,8.81-9.01.84-13.53,1.12-22.56,1.37Z"/>
    <path class="cls-1" d="m405.43,817.19c-8.92,1.9-16.16.87-21.37-2.73-5.22-3.6-8.25-9.67-9.35-18.04-1.14-8.68.11-15.5,3.48-20.56,3.36-5.06,8.72-8.21,16.3-9.83,4.51-.96,8.35-.98,11.6.03s5.55,2.94,6.87,5.87c1.83-.5,2.75-.75,4.58-1.28,0,5.98-.05,8.98-.22,14.98-1.38-5.01-3.66-8.47-6.77-10.45-3.11-1.98-6.95-2.39-11.62-1.35-4.79,1.06-8.12,3.25-10.09,6.71-1.97,3.46-2.51,8.11-1.5,13.98.96,5.56,3.02,9.54,6.28,11.88,3.26,2.33,7.63,2.97,12.98,1.78,5.22-1.16,8.85-3.47,10.81-6.76,1.96-3.29,2.2-7.46.82-12.48,3.22,5.07,4.87,7.6,8.24,12.6-2.27.65-3.4.97-5.68,1.58.42,3.17-.7,6.04-3.41,8.56-2.71,2.52-6.71,4.4-11.94,5.51Zm-18.6,25.46c-.82-3.61-1.22-5.42-2.02-9.03,9.12-1.52,13.67-2.42,22.68-4.52,7.11-1.67,11.95-4.34,14.46-7.74,2.51-3.4,3.04-7.62,1.71-12.61-3.25-11.83-6.49-23.67-9.74-35.5-.68-4.23-1.03-6.35-1.74-10.57,4.16-1.15,6.23-1.77,10.35-3.08,4.65,14.59,9.29,29.19,13.94,43.78,2.72,8.55,2.03,15.83-2.46,21.53-6.28,7.97-16.76,10.65-25.97,13.51-8.44,1.95-12.68,2.79-21.21,4.24Z"/>
    <path class="cls-1" d="m458.76,800.24c-8.65-22.15-17.31-44.3-25.96-66.46,4.15-1.62,6.22-2.47,10.32-4.27,9.55,21.78,19.09,43.56,28.64,65.35-5.16,2.26-7.76,3.34-13,5.38Zm39.37-18.3c-5.23-9.61-10.45-19.22-15.68-28.83-1.53-2.81-3.59-4.5-6.14-5.1-2.55-.6-5.37-.1-8.51,1.46-8.74,4.34-11.29,10.59-7.42,19.42-3.46-4.13-5.17-6.22-8.52-10.41,1.77-.75,2.65-1.13,4.4-1.91-1.05-3.24-.7-6.16.99-8.77,1.69-2.61,4.78-4.98,9.28-7.27,5.68-2.89,10.76-3.89,15.47-2.86,4.71,1.02,8.63,3.98,11.66,9.04,5.62,9.39,11.23,18.78,16.85,28.16-4.9,2.94-7.38,4.35-12.38,7.07Z"/>
    <path class="cls-1" d="m501.13,731.64c-1.96-2.95-2.93-4.42-4.89-7.37,15.66-10.89,29.99-22.56,43.85-35.64,2.48,2.52,3.72,3.78,6.2,6.3-14.27,13.47-29.04,25.5-45.16,36.71Zm23.64,5.11c-8.31-11.21-16.62-22.41-24.93-33.62,3.77-2.81,5.64-4.25,9.32-7.24,8.77,10.84,17.55,21.69,26.32,32.53-4.23,3.43-6.37,5.09-10.71,8.32Zm39.16-.09c-8.36,7.48-15.68,11.24-21.46,11.72-5.79.48-10.71-2.21-14.87-7.81l-5.1-6.88c4.29-3.19,6.4-4.83,10.58-8.22,2.03,2.51,3.05,3.77,5.08,6.29,2.51,3.11,5.39,4.52,8.65,4.16,3.26-.36,7.35-2.61,12.1-6.9,1.68-1.52,3.4-3.21,5.14-5.09,1.74-1.87,3.69-4.06,5.82-6.58,2.96,2.05,4.44,3.07,7.42,5.09-2.06,2.59-4.15,5.03-6.28,7.31-2.13,2.28-4.49,4.59-7.09,6.92Z"/>
  </g>
  <text class="cls-2" transform="translate(96.67 635.8)"><tspan x="0" y="0">G</tspan></text>
</svg>