<?xml version="1.0" encoding="UTF-8"?>
<svg id="Ebene_1" data-name="Ebene 1" xmlns="http://www.w3.org/2000/svg" viewBox="0 0 282.55 458.17">
  <defs>
    <style>
      .cls-1 {
        font-family: ColonnaMT, 'Colonna MT';
        font-size: 409.6px;
      }

      .cls-1, .cls-2 {
        fill: #1d1d1b;
      }

      .cls-2 {
        stroke-width: 0px;
      }
    </style>
  </defs>
  <g>
    <path class="cls-2" d="m42.19,74.08c-5.32,4.13-10.21,6.27-15.11,6.22-4.9-.05-9.83-2.29-14.63-7.1-4.55-4.55-6.64-9.57-5.88-15.12.75-5.55,4.26-11.09,10.5-15.94,3.12-2.43,6.16-4.11,9.06-5.08s5.35-1.13,7.34-.54c-1.01,2.63-1.49,3.94-2.4,6.58-1.67-.38-3.43-.33-5.27.16-1.84.49-3.59,1.37-5.23,2.64-4.13,3.2-6.43,6.87-6.88,10.71-.45,3.84,1.01,7.49,4.21,10.98,3.5,3.81,7.1,5.76,10.71,6.04,3.61.27,7.22-1.12,11.06-4.07,1.64-1.26,3.01-2.48,4.09-3.68,1.08-1.2,1.98-2.18,2.67-2.94,1.93,1.03,2.89,1.55,4.78,2.62-.61.69-1.72,1.83-3.29,3.47-1.57,1.64-3.49,3.3-5.75,5.06Zm-11.71-9.9c-1.32-1.65-1.99-2.47-3.31-4.12,5.3-4.27,8.03-6.26,13.62-9.96,1.17,1.77,1.75,2.65,2.92,4.41-5.42,3.59-8.07,5.53-13.22,9.67Zm15.56,4.94c-4.34-6.07-6.51-9.1-10.86-15.16,2.29-1.64,3.44-2.44,5.78-3.98,4.11,6.23,6.16,9.34,10.27,15.57-2.1,1.38-3.13,2.1-5.19,3.57Z"/>
    <path class="cls-2" d="m71.34,56.08c-4.08,1.95-7.79,2.45-11.36,1.39-3.57-1.06-6.65-3.59-9.13-7.77-2.49-4.2-3.2-8.18-1.94-11.95,1.26-3.76,4.36-6.97,9.22-9.29,4.88-2.33,9.28-2.72,12.96-1.32,3.68,1.4,6.3,4.47,8.01,9.04,1.7,4.55,1.77,8.54.4,11.96s-4.05,5.99-8.15,7.95Zm-2.28-4.77c2.24-1.07,3.62-2.64,4.17-4.78.55-2.14.24-4.69-1-7.63-1.25-2.96-2.88-4.96-4.93-5.96-2.06-1-4.38-.91-6.89.29-2.51,1.2-4.05,2.96-4.57,5.19-.52,2.23,0,4.76,1.53,7.59,1.51,2.81,3.3,4.65,5.33,5.56,2.03.91,4.12.82,6.36-.26Z"/>
    <path class="cls-2" d="m102.87,44.86c-3.29.8-6.04.62-8.38-.62-2.34-1.24-4.05-3.42-5.05-6.63-2.34-7.44-3.5-11.15-5.84-18.59,2.93-.92,4.4-1.35,7.35-2.14,2.04,7.52,3.06,11.28,5.09,18.81.44,1.63,1.32,2.74,2.61,3.35,1.29.61,2.88.69,4.8.24,2.36-.54,4.01-1.57,4.97-3.15.96-1.58,1.17-3.94.59-7.1,1.28,3,1.91,4.51,3.12,7.53-.87.15-1.3.23-2.17.39-.15,2.07-.85,3.77-2.09,5.12-1.24,1.36-2.9,2.27-5,2.78Zm7.1-10.62c-1.54-8.32-2.31-12.48-3.85-20.8,3-.55,4.5-.8,7.52-1.23,1.11,7.71,1.67,11.57,2.79,19.28-2.61,1.05-3.9,1.6-6.45,2.75Zm2.11,8.39c-.72-2.74-1.09-4.11-1.83-6.85-.38-2.04-.57-3.05-.94-5.09,2.72-.5,4.09-.73,6.83-1.12.38,2.62.57,3.93.95,6.56,1.85-.02,2.77-.01,4.61.02.22,1.88.33,2.82.55,4.7-4.09.59-6.12.94-10.17,1.79Z"/>
    <path class="cls-2" d="m126.24,40.43c-.19-2.06-.28-3.09-.47-5.16,8.83-.8,13.28-.91,22.14-.55-.09,2.07-.13,3.1-.21,5.17-8.58-.35-12.89-.24-21.45.54Zm-.83-24.35c-.17-2.06-.26-3.09-.43-5.16,5.06-.42,7.6-.55,12.67-.64.32,2.07.48,3.1.79,5.16-5.22.07-7.83.2-13.03.63Zm7.97,23.85c-.46-9.82-.93-19.65-1.39-29.47,2.46-.12,3.7-.15,6.16-.19.62,3.38.92,5.06,1.5,8.44.06,8.42.09,12.62.16,21.04-2.57.02-3.86.05-6.43.17Zm6.33-12.87c-.84-3.69-1.28-5.53-2.2-9.21,1.13-.02,1.69-.03,2.82-.03.39-5.42,3.9-8.21,10.46-7.88,3.93.2,6.71,1.32,8.29,3.23,1.58,1.9,2.11,4.8,1.69,8.68-2.83-.31-4.25-.44-7.09-.63.15-2.15-.13-3.72-.87-4.72-.74-.99-2.01-1.55-3.81-1.62-3.15-.13-5.53.91-7.07,3.05-1.54,2.14-2.25,5.19-2.22,9.15Z"/>
    <path class="cls-2" d="m163.52,41.32c1.37-9.74,2.73-19.48,4.1-29.22,2.67.37,4.01.58,6.67,1.05-.09,2.52-.15,3.77-.26,6.29-1.66,9.16-2.49,13.74-4.15,22.9-2.54-.46-3.81-.66-6.36-1.02Zm11.92,2.12c1.96-9.03,2.94-13.55,4.91-22.58.35-1.63-.43-2.66-2.37-3.05-2.35-.47-3.77.64-4.24,3.27-.54-1.82-.82-2.72-1.4-4.54.95.16,1.42.24,2.36.41.78-2.72,3.2-3.75,7.2-2.88,1.95.42,3.37,1.3,4.22,2.6.85,1.3,1,2.99.47,5.08-2.32,9.18-3.48,13.76-5.81,22.94-2.13-.54-3.2-.79-5.34-1.25Zm10.82,2.74c2.52-8.66,3.78-12.99,6.29-21.65.57-1.96-.07-3.22-1.94-3.73-2.37-.65-3.88.36-4.54,2.95-.55-1.88-.84-2.83-1.43-4.71,1.13.27,1.69.41,2.82.69.4-1.09,1.21-1.91,2.46-2.44,1.24-.54,2.86-.53,4.8.03,2.55.74,4.24,1.85,5.04,3.26.8,1.41.8,3.28.02,5.6-2.93,8.76-4.4,13.15-7.33,21.91-2.46-.82-3.7-1.21-6.19-1.93Z"/>
    <path class="cls-2" d="m215.01,58.22c-4.97-2.56-8.33-5.47-10.16-9.1-1.83-3.63-1.98-7.74-.2-12.36,1.74-4.5,4.42-7.51,8.19-8.84,3.77-1.33,8.3-.85,13.31,1.63,4.72,2.33,7.74,5.41,9,8.92,1.26,3.51.61,7.24-1.78,11.17-.7,1.16-1.42,2.2-2.14,3.13-8.57-5.2-13.01-7.46-22.09-11.31.71-1.66,1.06-2.49,1.76-4.15,6.98,2.97,10.42,4.64,17.12,8.38,1.29-2.32,1.6-4.49.86-6.5-.74-2.02-2.41-3.7-4.97-4.97-2.88-1.43-5.52-1.69-7.81-.84-2.29.85-4.02,2.74-5.25,5.6-1.35,3.14-1.32,5.96-.05,8.5,1.28,2.53,3.68,4.63,7.25,6.5,1.25.65,2.5,1.25,3.77,1.79,1.26.54,2.57,1.07,3.92,1.58-.76,1.96-1.14,2.93-1.92,4.88-1.86-.72-3.51-1.41-4.98-2.11-1.46-.7-2.74-1.32-3.84-1.89Z"/>
    <path class="cls-2" d="m244.32,46.64c1.15-1.72,1.72-2.59,2.87-4.31,10.08,6.73,19.52,14.42,28.15,22.93-1.45,1.48-2.18,2.21-3.63,3.69-8.4-8.27-17.58-15.76-27.39-22.31Zm1.7,13.94c5.85-7.86,8.77-11.79,14.62-19.66,2.67,1.99,3.99,3.02,6.6,5.14-6.17,7.61-9.25,11.42-15.42,19.03-2.29-1.86-3.45-2.76-5.79-4.51Zm2.63,20.83c-3.86-3.45-6.16-6.46-6.85-9.35-.69-2.89.12-5.98,2.56-9.25,1.2-1.61,1.79-2.41,2.99-4.02,2.38,1.77,3.55,2.68,5.87,4.57-1.19,1.47-1.79,2.21-2.98,3.68-1.47,1.82-2,3.57-1.63,5.26.37,1.69,1.74,3.52,4.06,5.62.82.74,1.72,1.5,2.71,2.29.98.78,2.11,1.68,3.38,2.7-1.23,1.7-1.84,2.55-3.09,4.23-1.24-.92-2.42-1.84-3.54-2.74-1.12-.91-2.28-1.9-3.48-2.98Z"/>
  </g>
  <g>
    <path class="cls-2" d="m8.71,359.21c8.63-8.63,17.26-17.26,25.88-25.88,1.81,1.81,2.73,2.69,4.59,4.41-8.26,8.98-16.51,17.97-24.77,26.95-2.32-2.13-3.46-3.23-5.71-5.48Zm5.32,5.12c1.33-1.44,1.99-2.16,3.32-3.6,1.62,1.5,2.45,2.24,4.1,3.69,4.03,3.52,7.87,5.14,11.25,5.02,3.38-.12,6.3-2,8.83-5.48,2.74-3.77,3.8-7.29,3.35-10.54-.45-3.25-2.39-6.23-5.84-9.23-1.38-1.2-2.06-1.81-3.41-3.06,1.11-1.64,1.66-2.46,2.78-4.1,1.52,1.42,2.29,2.11,3.84,3.46,8.92,6.8,11.47,18.12,5.03,27.48-7.55,10.95-20.1,7.95-29.05.14-1.7-1.48-2.55-2.24-4.21-3.78Z"/>
    <path class="cls-2" d="m61.25,396.81c-5.92-2.78-9.83-6.34-11.67-10.22-1.84-3.88-1.44-7.79.96-11.71,2.33-3.81,5.32-6.03,8.86-6.85s7.28-.13,11.49,1.94c3.96,1.95,6.61,4.3,8.02,7.3,1.41,3,1.42,6.48-.12,10.45-.45,1.17-.94,2.24-1.46,3.2-9.36-3.64-13.95-5.8-22.82-10.83.82-1.45,1.23-2.18,2.06-3.64,6.49,3.68,9.83,5.33,16.6,8.24.97-2.26,1.04-4.28.25-6.07-.79-1.79-2.31-3.21-4.59-4.33-2.56-1.26-4.89-1.6-7.05-.97-2.17.63-3.98,2.16-5.39,4.68-1.55,2.76-1.71,5.44-.38,8.02,1.33,2.59,4.03,4.92,8.06,6.79,1.41.65,2.83,1.22,4.26,1.7,1.43.48,2.9.91,4.41,1.28-.38,1.91-.57,2.87-.94,4.79-2.2-.55-4.19-1.17-5.94-1.84-1.75-.67-3.29-1.33-4.6-1.95Z"/>
    <path class="cls-2" d="m92.45,372.31c.61-1.82.91-2.73,1.52-4.55,3.55,1.19,5.35,1.73,8.96,2.68-.49,1.85-.74,2.78-1.24,4.63-3.73-.99-5.58-1.54-9.25-2.77Zm11.85,38.67c-4.29-.86-7.18-2.45-8.62-4.59-1.44-2.14-1.63-5.04-.64-8.69,2.47-9.13,4.93-18.25,7.4-27.38,2.32.62,3.48.91,5.82,1.44-2.08,9.13-4.16,18.27-6.24,27.4-.32,1.41-.41,2.6-.25,3.56.16.97.71,1.78,1.67,2.42.96.64,2.48,1.17,4.55,1.56,1.89.35,4.37.44,7.39.22.05,1.94.09,2.92.16,4.86-1.94.11-3.8.1-5.57-.02s-3.66-.38-5.67-.78Z"/>
    <path class="cls-2" d="m125.53,413.46c.16-1.91.24-2.87.4-4.78,5.84.49,8.76.62,14.61.64,0,1.92-.01,2.88-.02,4.79-6.01-.02-9.01-.16-15-.66Zm3.76-22.3c.14-1.91.21-2.87.35-4.78,6.71.49,10.08.55,16.81.34.06,1.92.09,2.88.15,4.79-6.93.22-10.4.15-17.31-.35Zm13.69-8.7c-1.2.01-2.22-.36-3.07-1.12-.84-.75-1.24-1.66-1.22-2.71.02-1.07.45-1.96,1.27-2.69.82-.73,1.8-1.1,2.94-1.11,1.16-.01,2.14.33,2.97,1.05.83.71,1.28,1.6,1.32,2.66.04,1.05-.34,1.96-1.15,2.73-.81.77-1.84,1.17-3.05,1.19Zm-3.16,31.66c.08-10.31.12-15.47.2-25.78,2.59.02,3.89,0,6.47-.08.33,10.31.5,15.46.83,25.76-3,.1-4.5.11-7.51.09Zm6.8-.07c-.05-1.92-.08-2.88-.14-4.79,4.77-.14,7.16-.28,11.92-.73.18,1.91.27,2.86.45,4.77-4.88.46-7.33.61-12.23.75Z"/>
    <path class="cls-2" d="m180.6,410.5c-4.84,1.03-8.76.47-11.58-1.48-2.83-1.95-4.47-5.24-5.07-9.78-.62-4.7.06-8.4,1.89-11.15,1.82-2.74,4.73-4.45,8.84-5.33,2.45-.52,4.53-.53,6.29.02,1.76.55,3.01,1.6,3.72,3.18.99-.27,1.49-.41,2.48-.69,0,3.24-.03,4.87-.12,8.12-.75-2.72-1.99-4.59-3.67-5.66-1.69-1.07-3.76-1.3-6.3-.73-2.6.58-4.4,1.76-5.47,3.64-1.07,1.87-1.36,4.4-.81,7.58.52,3.01,1.64,5.17,3.4,6.44,1.77,1.26,4.14,1.61,7.04.97,2.83-.63,4.8-1.88,5.86-3.67,1.06-1.79,1.19-4.04.45-6.76,1.75,2.75,2.64,4.12,4.47,6.83-1.23.35-1.84.53-3.08.86.23,1.72-.38,3.27-1.85,4.64-1.47,1.36-3.64,2.38-6.47,2.99Zm-10.08,13.8c-.44-1.96-.66-2.94-1.1-4.89,4.95-.82,7.41-1.31,12.3-2.45,3.86-.9,6.48-2.35,7.84-4.2,1.36-1.84,1.65-4.13.93-6.84-2.11-7.7-3.17-11.55-5.28-19.24-.37-2.29-.56-3.44-.94-5.73,2.25-.63,3.38-.96,5.61-1.67,3.02,9.49,4.53,14.24,7.56,23.73,1.48,4.64,1.09,8.55-1.33,11.67-2.43,3.12-7.14,5.73-14.08,7.32-4.57,1.05-6.88,1.51-11.5,2.3Z"/>
    <path class="cls-2" d="m209.5,401.31c-4.69-12.01-9.38-24.02-14.07-36.02,2.25-.88,3.37-1.34,5.59-2.31,5.17,11.81,10.35,23.62,15.52,35.42-2.8,1.23-4.21,1.81-7.05,2.92Zm21.34-9.92c-3.4-6.25-5.1-9.38-8.5-15.63-.83-1.53-1.95-2.44-3.33-2.76-1.38-.33-2.91-.05-4.61.79-4.74,2.35-6.12,5.74-4.02,10.53-1.88-2.24-2.8-3.37-4.62-5.65.96-.41,1.43-.61,2.39-1.03-.57-1.76-.38-3.34.54-4.75.92-1.42,2.59-2.7,5.03-3.94,3.08-1.57,5.83-2.11,8.39-1.55s4.68,2.16,6.32,4.9c3.65,6.11,5.48,9.16,9.13,15.27-2.66,1.59-4,2.36-6.71,3.83Z"/>
    <path class="cls-2" d="m232.47,364.12c-1.06-1.6-1.59-2.4-2.65-4,8.4-5.47,16.7-12.22,23.77-19.32,1.35,1.37,2.02,2.05,3.36,3.42-7.28,7.32-15.83,14.27-24.48,19.9Zm12.81,2.77c-5.41-7.29-8.11-10.93-13.51-18.22,2.05-1.52,3.06-2.31,5.05-3.92,5.71,7.05,8.56,10.58,14.27,17.64-2.29,1.86-3.45,2.76-5.81,4.51Zm21.23-.05c-4.53,4.05-8.5,6.09-11.64,6.35-3.14.26-5.81-1.2-8.06-4.23-1.11-1.49-1.66-2.24-2.76-3.73,2.32-1.73,3.47-2.62,5.74-4.46,1.1,1.36,1.65,2.04,2.76,3.41,1.36,1.68,2.92,2.45,4.69,2.25,1.77-.2,3.99-1.42,6.56-3.74.91-.82,1.84-1.74,2.78-2.76.94-1.02,2-2.2,3.16-3.57,1.6,1.11,2.41,1.66,4.02,2.76-1.11,1.41-2.25,2.73-3.4,3.96-1.15,1.23-2.44,2.49-3.85,3.75Z"/>
  </g>
  <text class="cls-1" transform="translate(12.22 318.17)"><tspan x="0" y="0">G</tspan></text>
</svg>